# xmcd CD database file
#
# Track frame offsets:
#	150
#	23632
#	44558
#	84421
#	103732
#	129624
#	153598
#	181346
#	199800
#	214832
#	223674
#	247510
#
# Disc length: 3573 seconds
#
# Revision: 0
# Processed by: cddbd v1.5.2PL0 Copyright (c) Steve Scherf et al.
# Submitted via: CDex 1.70beta2
#
DISCID=a30df30c
DTITLE=Tag - Suite for Shining Life
DYEAR=2007
DGENRE=Jazz
TTITLE0=Joy to the life
TTITLE1=Can't you see
TTITLE2=Rain
TTITLE3=In the soup
TTITLE4=If I Should lose you
TTITLE5=Under ther sun
TTITLE6=Zero
TTITLE7=Bad moon
TTITLE8=Organic stone
TTITLE9=Tidbits
TTITLE10=Do you know where you're going?
TTITLE11=Departure
EXTD=YEAR: 2007
EXTT0=
EXTT1=
EXTT2=
EXTT3=
EXTT4=
EXTT5=
EXTT6=
EXTT7=
EXTT8=
EXTT9=
EXTT10=
EXTT11=
PLAYORDER=
